PathFileType	4	(X/Y/Z)	Patient4_TMGait_0pt3_01_right_19.trc.trc
DataRate	CameraRate	NumFrames	NumMarkers	Units	OrigDataRate	OrigDataStartFrame	OrigNumFrames
51.851851851852	51.851851851852	4	33	mm	51.851851851852	106	       141
Frame#	Time	Sacral			L.Shoulder			Chest			R.Shoulder			Neck			R.ASIS			L.ASIS			R.Thigh.Superior			R.Thigh.Lateral			R.Thigh.Inferior			R.Patella			L.Thigh.Superior			L.Thigh.Lateral			L.Thigh.Inferior			L.Patella			L.Shank.Superior			L.Shank.Lateral			L.Shank.Inferior			R.Shank.Superior			R.Shank.Lateral			R.Shank.Inferior			R.Heel			R.Midfoot.Superior			R.Midfoot.Lateral			R.Toe			L.Heel			L.Midfoot.Lateral			L.Midfoot.Superior			L.Toe			L.Elbow			L.Wrist			R.Elbow			R.Wrist			
		X1	Y1	Z1	X2	Y2	Z2	X3	Y3	Z3	X4	Y4	Z4	X5	Y5	Z5	X6	Y6	Z6	X7	Y7	Z7	X8	Y8	Z8	X9	Y9	Z9	X10	Y10	Z10	X11	Y11	Z11	X12	Y12	Z12	X13	Y13	Z13	X14	Y14	Z14	X15	Y15	Z15	X16	Y16	Z16	X17	Y17	Z17	X18	Y18	Z18	X19	Y19	Z19	X20	Y20	Z20	X21	Y21	Z21	X22	Y22	Z22	X23	Y23	Z23	X24	Y24	Z24	X25	Y25	Z25	X26	Y26	Z26	X27	Y27	Z27	X28	Y28	Z28	X29	Y29	Z29	X30	Y30	Z30	X31	Y31	Z31	X32	Y32	Z32	X33	Y33	Z33	

106	36.555000000000	724.526934163706	986.622230120985	449.054195197098	917.788916015084	1422.130225079749	280.835499293217	1004.152127188932	1353.622412603037	450.864452984837	904.291283526515	1425.291618908090	616.403218769663	888.974835644744	1482.917956507287	437.766471109678	949.964535342945	934.245599243175	580.031868697197	954.669079393677	951.102739004838	304.687673971604	1029.568857741361	754.910898101161	557.944839506534	979.300640153125	635.720366598602	628.578965239029	1070.542790926780	591.467144926590	553.178089599715	1081.641586513678	478.534383298076	580.772935202759	1009.436304851071	740.212671699187	348.239260773444	931.202635866368	614.457660319878	294.622486461059	1016.125078726999	544.679247463736	367.597025319238	1018.339737659980	470.826206088657	380.394705894815	977.298175628796	396.999696718442	376.131621780327	873.898960159925	295.273287985350	323.853742399978	897.882574825658	181.928177840207	402.613583021535	1001.299205871821	408.134884492389	587.683261304341	873.155186930310	375.328510823260	638.586607396440	861.424657238406	263.174510918453	595.676928508889	660.746836222276	196.013310333271	550.514135508594	827.182105635406	151.536778330850	617.017115657870	713.702693568327	148.654389690383	636.872298060392	892.378514137113	45.597654081957	662.490862129976	747.777174158931	38.721843441329	441.573595995247	823.846244583943	36.088737168874	362.848372919545	907.930326005278	94.824743072427	393.017737383676	1036.151991335921	40.308525956053	365.905650758694	979.707841218381	1083.815742770578	141.802603894657	1144.888408625734	881.744480013581	156.433169960741	892.365455105954	1071.584989562075	728.126073020063	1007.064750076629	840.016300615290	755.851226624991	
107	36.574285714286	723.519288599783	985.644296898635	446.517195539310	919.713276864038	1422.015363788207	281.858843161921	1003.482197251480	1352.735189025963	452.788990049970	901.185262388761	1423.252745737629	617.398792369590	888.717281022773	1482.149026372495	438.934604079371	948.083088946261	933.799676344511	579.466706038716	955.037511915903	950.407527903420	304.109180174858	1030.470957239697	757.083220542806	556.567576659395	983.010768043719	637.237131524117	627.387749895572	1074.575808202360	594.622549437731	551.433139438182	1088.603439532350	482.293429967515	579.168781526140	1008.809096318743	739.025691632904	348.239788351291	930.484000191110	613.310575852129	294.430421675648	1014.492588670064	543.393444914429	368.334842221299	1016.352733184288	469.406431285746	381.259052317953	974.571604268345	395.701306343140	376.722750312777	870.531548071310	294.780591424373	324.141753277945	893.108120766650	181.295633895464	402.964811731651	1010.254256548253	409.994996038664	586.533547347282	883.433876114399	373.305991472459	637.652458406409	875.220186520311	260.875451919832	594.954520028182	676.958206324984	186.789333024103	550.410942526801	844.938873799916	148.795009637595	616.597161606578	731.782604107644	141.510721200904	636.596055191538	913.870882857978	45.370475972744	661.620391113451	741.958285398428	38.736018889009	441.536891696107	818.057147282420	36.084828747326	362.829629320668	902.179691693335	94.724595561508	393.107844196933	1030.356978304809	40.239326040293	365.871647973522	989.042289506656	1085.243026430042	142.873533182547	1160.211718354266	888.218686035651	158.285942872128	873.364213332836	1069.158777696162	724.779177704348	969.470885493535	829.042523704057	750.815960949633	
108	36.593571428571	722.628717899400	985.285709495275	444.244779647665	921.844351873667	1422.340331455703	283.193662821433	1002.980558037726	1352.263755845560	454.983182859492	898.269459299852	1421.789599389177	618.557079074872	888.632707414833	1481.818246070024	440.327081132527	946.155918945415	933.693860994826	579.279220735436	955.297373313039	950.027539801478	304.005524452399	1030.711119563888	759.262458179057	555.561920886886	985.686936773946	638.906505522063	626.501165721556	1077.353984276593	597.706416629899	549.975775827240	1094.238823500635	486.310872025756	577.835638385497	1007.763592853171	737.985041415345	348.472579608424	929.034352456105	612.546195613662	294.360966078273	1011.953252388282	542.291554233978	369.094559396974	1013.331460857712	468.273664871650	382.135891817015	971.011221936994	394.753381504197	377.283270857260	866.567865461889	294.425497658577	324.398104400775	888.017529201752	180.835642150539	403.263245931774	1018.425042903976	411.962823387336	585.719433949407	893.514616269999	370.475728497451	637.228506656817	889.700713280198	257.862984254172	594.721652792230	694.800874290647	175.452663733154	550.964245944942	864.312048595421	145.183344229796	616.703342989534	751.772539787107	132.722741810831	636.917078609220	937.604474882758	45.044859524947	661.220348918728	736.131751344646	38.745571710319	441.485862473621	812.253091626426	36.073653515772	362.803730815351	896.402388448196	94.641617899798	393.168127211766	1024.549726433898	40.189311381175	365.844989369829	997.672449857770	1087.267785203560	144.042812091428	1175.382869241972	896.163610917945	160.668398195605	854.687951543023	1068.138639439405	721.358136648341	932.473774519120	821.133502512880	745.310243053037	
109	36.612857142857	721.866787729320	985.564847645070	442.237071451592	924.187014481160	1423.107804069648	284.816346151920	1002.641437728768	1352.238949316331	457.438645463101	895.535844265720	1420.965906097886	619.854791711904	888.723889343567	1481.953559674884	441.905837832641	944.186471205728	933.950548207741	579.488809614998	955.494186393543	950.014378125908	304.383064963793	1030.303314604444	761.421950493293	554.977604615076	987.275278402251	640.676116733589	625.960562936941	1078.877539609418	600.650784809919	548.898321966909	1098.489892829618	490.516126230603	576.851448049426	1006.287218960416	737.106795090414	348.905109245908	926.809492767225	612.204802499854	294.380705629917	1008.462871312378	541.398808727496	369.809492853128	1009.222709996593	467.462341674215	382.949874983212	966.576831541347	394.190314735709	377.756763155615	861.972391083245	294.225746078876	324.580638966911	882.601508424087	180.568314565806	403.482640965950	1025.732751971669	414.044697072558	585.276537719124	903.350554899065	366.987977717955	637.300194051016	904.741204087545	254.373200703509	594.951645940864	714.242961623288	162.485889794908	552.042800618415	885.084571496362	141.022085225330	617.270649674046	773.527633818767	122.747091251097	637.724695347948	963.203994266881	44.912965792596	661.280342089741	730.299874099144	38.758876333542	441.414610831646	806.434388785508	36.057267073593	362.768622222197	890.600776163343	94.580910613141	393.189228992043	1018.731115792576	40.155440760083	365.825398817991	1005.651365497970	1089.875007240654	145.235635163138	1190.313217802032	905.573360059487	163.541176516412	836.516556098576	1068.579355389755	717.957788603277	896.662573828877	816.279310681350	739.545244177369	
